<svg id="visual" viewBox="0 0 1080 720" width="1080" height="720" xmlns="http://www.w3.org/2000/svg" xmlns:xlink="http://www.w3.org/1999/xlink" version="1.1"><path d="M0 628L25.7 625.5C51.3 623 102.7 618 154.2 625.8C205.7 633.7 257.3 654.3 308.8 655.2C360.3 656 411.7 637 463 636.5C514.3 636 565.7 654 617 653C668.3 652 719.7 632 771.2 629.3C822.7 626.7 874.3 641.3 925.8 647C977.3 652.7 1028.7 649.3 1054.3 647.7L1080 646L1080 721L1054.3 721C1028.7 721 977.3 721 925.8 721C874.3 721 822.7 721 771.2 721C719.7 721 668.3 721 617 721C565.7 721 514.3 721 463 721C411.7 721 360.3 721 308.8 721C257.3 721 205.7 721 154.2 721C102.7 721 51.3 721 25.7 721L0 721Z" fill="#990000" stroke-linecap="round" stroke-linejoin="miter"></path></svg>