<svg id="visual" viewBox="0 0 3840 2160" width="3840" height="2160" xmlns="http://www.w3.org/2000/svg" xmlns:xlink="http://www.w3.org/1999/xlink" version="1.1"><path d="M0 919L53.3 971.5C106.7 1024 213.3 1129 320 1157.3C426.7 1185.7 533.3 1137.3 640 1081.8C746.7 1026.3 853.3 963.7 960 959.7C1066.7 955.7 1173.3 1010.3 1280 1063.5C1386.7 1116.7 1493.3 1168.3 1600 1173.8C1706.7 1179.3 1813.3 1138.7 1920 1106.8C2026.7 1075 2133.3 1052 2240 1039.3C2346.7 1026.7 2453.3 1024.3 2560 1057.2C2666.7 1090 2773.3 1158 2880 1146.2C2986.7 1134.3 3093.3 1042.7 3200 1002.3C3306.7 962 3413.3 973 3520 995C3626.7 1017 3733.3 1050 3786.7 1066.5L3840 1083L3840 0L3786.7 0C3733.3 0 3626.7 0 3520 0C3413.3 0 3306.7 0 3200 0C3093.3 0 2986.7 0 2880 0C2773.3 0 2666.7 0 2560 0C2453.3 0 2346.7 0 2240 0C2133.3 0 2026.7 0 1920 0C1813.3 0 1706.7 0 1600 0C1493.3 0 1386.7 0 1280 0C1173.3 0 1066.7 0 960 0C853.3 0 746.7 0 640 0C533.3 0 426.7 0 320 0C213.3 0 106.7 0 53.3 0L0 0Z" fill="#990000" stroke-linecap="round" stroke-linejoin="miter"></path></svg>