<svg id="visual" viewBox="0 0 1920 1080" width="1920" height="1080" xmlns="http://www.w3.org/2000/svg" xmlns:xlink="http://www.w3.org/1999/xlink" version="1.1"><path d="M1760 1080L1739.7 1054.3C1719.3 1028.7 1678.7 977.3 1667.5 925.8C1656.3 874.3 1674.7 822.7 1689 771.2C1703.3 719.7 1713.7 668.3 1704 617C1694.3 565.7 1664.7 514.3 1658 463C1651.3 411.7 1667.7 360.3 1676 308.8C1684.3 257.3 1684.7 205.7 1689.3 154.2C1694 102.7 1703 51.3 1707.5 25.7L1712 0L1920 0L1920 25.7C1920 51.3 1920 102.7 1920 154.2C1920 205.7 1920 257.3 1920 308.8C1920 360.3 1920 411.7 1920 463C1920 514.3 1920 565.7 1920 617C1920 668.3 1920 719.7 1920 771.2C1920 822.7 1920 874.3 1920 925.8C1920 977.3 1920 1028.7 1920 1054.3L1920 1080Z" fill="#fffdef"></path><path d="M1739 1080L1751.7 1054.3C1764.3 1028.7 1789.7 977.3 1801.7 925.8C1813.7 874.3 1812.3 822.7 1802.5 771.2C1792.7 719.7 1774.3 668.3 1763.2 617C1752 565.7 1748 514.3 1755.3 463C1762.7 411.7 1781.3 360.3 1800.2 308.8C1819 257.3 1838 205.7 1835.7 154.2C1833.3 102.7 1809.7 51.3 1797.8 25.7L1786 0L1920 0L1920 25.7C1920 51.3 1920 102.7 1920 154.2C1920 205.7 1920 257.3 1920 308.8C1920 360.3 1920 411.7 1920 463C1920 514.3 1920 565.7 1920 617C1920 668.3 1920 719.7 1920 771.2C1920 822.7 1920 874.3 1920 925.8C1920 977.3 1920 1028.7 1920 1054.3L1920 1080Z" fill="#f1f1f1"></path></svg>