<svg id="visual" viewBox="0 0 1920 1080" width="1920" height="1080" xmlns="http://www.w3.org/2000/svg" xmlns:xlink="http://www.w3.org/1999/xlink" version="1.1"><path d="M162 0L182.3 25.7C202.7 51.3 243.3 102.7 254.5 154.2C265.7 205.7 247.3 257.3 233 308.8C218.7 360.3 208.3 411.7 218 463C227.7 514.3 257.3 565.7 264 617C270.7 668.3 254.3 719.7 246 771.2C237.7 822.7 237.3 874.3 232.7 925.8C228 977.3 219 1028.7 214.5 1054.3L210 1080L0 1080L0 1054.3C0 1028.7 0 977.3 0 925.8C0 874.3 0 822.7 0 771.2C0 719.7 0 668.3 0 617C0 565.7 0 514.3 0 463C0 411.7 0 360.3 0 308.8C0 257.3 0 205.7 0 154.2C0 102.7 0 51.3 0 25.7L0 0Z" fill="#fffdef"></path><path d="M183 0L170.3 25.7C157.7 51.3 132.3 102.7 120.3 154.2C108.3 205.7 109.7 257.3 119.5 308.8C129.3 360.3 147.7 411.7 158.8 463C170 514.3 174 565.7 166.7 617C159.3 668.3 140.7 719.7 121.8 771.2C103 822.7 84 874.3 86.3 925.8C88.7 977.3 112.3 1028.7 124.2 1054.3L136 1080L0 1080L0 1054.3C0 1028.7 0 977.3 0 925.8C0 874.3 0 822.7 0 771.2C0 719.7 0 668.3 0 617C0 565.7 0 514.3 0 463C0 411.7 0 360.3 0 308.8C0 257.3 0 205.7 0 154.2C0 102.7 0 51.3 0 25.7L0 0Z" fill="#f1f1f1"></path></svg>