<svg id="visual" viewBox="0 0 1400 600" width="1400" height="600" xmlns="http://www.w3.org/2000/svg" xmlns:xlink="http://www.w3.org/1999/xlink" version="1.1"><path d="M0 474L14.7 475.5C29.3 477 58.7 480 87.8 491.3C117 502.7 146 522.3 175.2 528.8C204.3 535.3 233.7 528.7 262.8 517C292 505.3 321 488.7 350.2 488.5C379.3 488.3 408.7 504.7 437.8 513.2C467 521.7 496 522.3 525.2 516.2C554.3 510 583.7 497 612.8 488.2C642 479.3 671 474.7 700.2 483.3C729.3 492 758.7 514 787.8 524C817 534 846 532 875.2 532.5C904.3 533 933.7 536 962.8 539.8C992 543.7 1021 548.3 1050.2 548C1079.3 547.7 1108.7 542.3 1137.8 532.5C1167 522.7 1196 508.3 1225.2 499.7C1254.3 491 1283.7 488 1312.8 496.7C1342 505.3 1371 525.7 1385.5 535.8L1400 546L1400 601L1385.5 601C1371 601 1342 601 1312.8 601C1283.7 601 1254.3 601 1225.2 601C1196 601 1167 601 1137.8 601C1108.7 601 1079.3 601 1050.2 601C1021 601 992 601 962.8 601C933.7 601 904.3 601 875.2 601C846 601 817 601 787.8 601C758.7 601 729.3 601 700.2 601C671 601 642 601 612.8 601C583.7 601 554.3 601 525.2 601C496 601 467 601 437.8 601C408.7 601 379.3 601 350.2 601C321 601 292 601 262.8 601C233.7 601 204.3 601 175.2 601C146 601 117 601 87.8 601C58.7 601 29.3 601 14.7 601L0 601Z" fill="#990000" stroke-linecap="round" stroke-linejoin="miter"></path></svg>