<svg id="visual" viewBox="0 0 1400 600" width="1400" height="600" xmlns="http://www.w3.org/2000/svg" xmlns:xlink="http://www.w3.org/1999/xlink" version="1.1"><path d="M0 99L18 102.5C36 106 72 113 107.8 109.8C143.7 106.7 179.3 93.3 215.2 89.8C251 86.3 287 92.7 323 94.3C359 96 395 93 430.8 90.3C466.7 87.7 502.3 85.3 538.2 88C574 90.7 610 98.3 646 105.7C682 113 718 120 754 118.8C790 117.7 826 108.3 861.8 99.2C897.7 90 933.3 81 969.2 80.5C1005 80 1041 88 1077 87C1113 86 1149 76 1184.8 68.5C1220.7 61 1256.3 56 1292.2 63.5C1328 71 1364 91 1382 101L1400 111L1400 0L1382 0C1364 0 1328 0 1292.2 0C1256.3 0 1220.7 0 1184.8 0C1149 0 1113 0 1077 0C1041 0 1005 0 969.2 0C933.3 0 897.7 0 861.8 0C826 0 790 0 754 0C718 0 682 0 646 0C610 0 574 0 538.2 0C502.3 0 466.7 0 430.8 0C395 0 359 0 323 0C287 0 251 0 215.2 0C179.3 0 143.7 0 107.8 0C72 0 36 0 18 0L0 0Z" fill="#990000" stroke-linecap="round" stroke-linejoin="miter"></path></svg>