<svg id="visual" viewBox="0 0 960 540" width="960" height="540" xmlns="http://www.w3.org/2000/svg" xmlns:xlink="http://www.w3.org/1999/xlink" version="1.1"><rect x="0" y="0" width="960" height="540" fill="#990000"></rect><path d="M0 364L8.5 364.5C17 365 34 366 50.8 365C67.7 364 84.3 361 101.2 367.3C118 373.7 135 389.3 151.8 396.5C168.7 403.7 185.3 402.3 202.2 402.8C219 403.3 236 405.7 252.8 393.7C269.7 381.7 286.3 355.3 303.2 344.7C320 334 337 339 353.8 339C370.7 339 387.3 334 404.2 338.2C421 342.3 438 355.7 454.8 363.2C471.7 370.7 488.3 372.3 505.2 370.7C522 369 539 364 555.8 364C572.7 364 589.3 369 606.2 375.8C623 382.7 640 391.3 656.8 397.8C673.7 404.3 690.3 408.7 707.2 399.8C724 391 741 369 757.8 357.5C774.7 346 791.3 345 808.2 350.8C825 356.7 842 369.3 858.8 373C875.7 376.7 892.3 371.3 909.2 377C926 382.7 943 399.3 951.5 407.7L960 416L960 541L951.5 541C943 541 926 541 909.2 541C892.3 541 875.7 541 858.8 541C842 541 825 541 808.2 541C791.3 541 774.7 541 757.8 541C741 541 724 541 707.2 541C690.3 541 673.7 541 656.8 541C640 541 623 541 606.2 541C589.3 541 572.7 541 555.8 541C539 541 522 541 505.2 541C488.3 541 471.7 541 454.8 541C438 541 421 541 404.2 541C387.3 541 370.7 541 353.8 541C337 541 320 541 303.2 541C286.3 541 269.7 541 252.8 541C236 541 219 541 202.2 541C185.3 541 168.7 541 151.8 541C135 541 118 541 101.2 541C84.3 541 67.7 541 50.8 541C34 541 17 541 8.5 541L0 541Z" fill="#FFFDEF" stroke-linecap="round" stroke-linejoin="miter"></path></svg>