<svg id="visual" viewBox="0 0 3840 2160" width="3840" height="2160" xmlns="http://www.w3.org/2000/svg" xmlns:xlink="http://www.w3.org/1999/xlink" version="1.1"><path d="M0 1639L91.5 1619.2C183 1599.3 366 1559.7 548.8 1561.2C731.7 1562.7 914.3 1605.3 1097.2 1583.2C1280 1561 1463 1474 1645.8 1437C1828.7 1400 2011.3 1413 2194.2 1457.2C2377 1501.3 2560 1576.7 2742.8 1634.5C2925.7 1692.3 3108.3 1732.7 3291.2 1702.5C3474 1672.3 3657 1571.7 3748.5 1521.3L3840 1471L3840 2161L3748.5 2161C3657 2161 3474 2161 3291.2 2161C3108.3 2161 2925.7 2161 2742.8 2161C2560 2161 2377 2161 2194.2 2161C2011.3 2161 1828.7 2161 1645.8 2161C1463 2161 1280 2161 1097.2 2161C914.3 2161 731.7 2161 548.8 2161C366 2161 183 2161 91.5 2161L0 2161Z" fill="#990000" stroke-linecap="round" stroke-linejoin="miter"></path></svg>